PathFileType	4	(X/Y/Z)	Kaydara	
DataRate	CameraRate	NumFrames	NumMarkers	Units	OrigDataRate	OrigDataStartFrame	OrigNumFrames	
120.00	120.00	4	72	mm	120.00	98	261	
Frame#	Time	Hips			RightUpLeg			RightLeg			RightFoot			RightFoot_End			LeftUpLeg			LeftLeg			LeftFoot			LeftFoot_End			Spine			Spine1			Spine2			Spine3			Neck			Head			Head_End			RightShoulder			RightArm			RightForeArm			RightHand			RightHandThumb1			RightHandThumb2			RightHandThumb3			RightHandThumb3_End			RightInHandIndex			RightHandIndex1			RightHandIndex2			RightHandIndex3			RightHandIndex3_End			RightInHandMiddle			RightHandMiddle1			RightHandMiddle2			RightHandMiddle3			RightHandMiddle3_End			RightInHandRing			RightHandRing1			RightHandRing2			RightHandRing3			RightHandRing3_End			RightInHandPinky			RightHandPinky1			RightHandPinky2			RightHandPinky3			RightHandPinky3_End			LeftShoulder			LeftArm			LeftForeArm			LeftHand			LeftHandThumb1			LeftHandThumb2			LeftHandThumb3			LeftHandThumb3_End			LeftInHandIndex			LeftHandIndex1			LeftHandIndex2			LeftHandIndex3			LeftHandIndex3_End			LeftInHandMiddle			LeftHandMiddle1			LeftHandMiddle2			LeftHandMiddle3			LeftHandMiddle3_End			LeftInHandRing			LeftHandRing1			LeftHandRing2			LeftHandRing3			LeftHandRing3_End			LeftInHandPinky			LeftHandPinky1			LeftHandPinky2			LeftHandPinky3			LeftHandPinky3_End			
		X1	Y1	Z1	X2	Y2	Z2	X3	Y3	Z3	X4	Y4	Z4	X5	Y5	Z5	X6	Y6	Z6	X7	Y7	Z7	X8	Y8	Z8	X9	Y9	Z9	X10	Y10	Z10	X11	Y11	Z11	X12	Y12	Z12	X13	Y13	Z13	X14	Y14	Z14	X15	Y15	Z15	X16	Y16	Z16	X17	Y17	Z17	X18	Y18	Z18	X19	Y19	Z19	X20	Y20	Z20	X21	Y21	Z21	X22	Y22	Z22	X23	Y23	Z23	X24	Y24	Z24	X25	Y25	Z25	X26	Y26	Z26	X27	Y27	Z27	X28	Y28	Z28	X29	Y29	Z29	X30	Y30	Z30	X31	Y31	Z31	X32	Y32	Z32	X33	Y33	Z33	X34	Y34	Z34	X35	Y35	Z35	X36	Y36	Z36	X37	Y37	Z37	X38	Y38	Z38	X39	Y39	Z39	X40	Y40	Z40	X41	Y41	Z41	X42	Y42	Z42	X43	Y43	Z43	X44	Y44	Z44	X45	Y45	Z45	X46	Y46	Z46	X47	Y47	Z47	X48	Y48	Z48	X49	Y49	Z49	X50	Y50	Z50	X51	Y51	Z51	X52	Y52	Z52	X53	Y53	Z53	X54	Y54	Z54	X55	Y55	Z55	X56	Y56	Z56	X57	Y57	Z57	X58	Y58	Z58	X59	Y59	Z59	X60	Y60	Z60	X61	Y61	Z61	X62	Y62	Z62	X63	Y63	Z63	X64	Y64	Z64	X65	Y65	Z65	X66	Y66	Z66	X67	Y67	Z67	X68	Y68	Z68	X69	Y69	Z69	X70	Y70	Z70	X71	Y71	Z71	X72	Y72	Z72	

98	0.808	3081.203	893.81699	129.612	3170.747477179567	901.7484521294738	93.67083399268145	3058.4074713934388	502.0738421405119	36.67025005690547	3041.3897220280774	111.40742427844218	24.421336854937213	2926.6795785886347	42.620910515502835	163.73959869640123	3004.04367768768	860.0080616443437	179.5657220380047	2898.476891141225	471.87758683709296	295.8854882713761	2780.636717304357	80.91089624084174	465.7255198308945	2634.6452846202214	36.08813894768632	351.4416252851226	3022.3324668818723	1013.147357933038	77.60653196890019	2965.2533081560896	1074.0103231477226	28.215342416137474	2902.1468630926906	1131.268177750814	-26.06357108122507	2837.3417635653914	1176.2410654668602	-82.62933636623733	2766.3373220397893	1225.6196757024245	-139.94287465807653	2692.0058438862143	1263.61712129183	-183.81798931763987	2552.959406958426	1340.950839301174	-195.93789298138665	2813.487136234725	1224.809126657054	-135.54213595258506	2900.9041205383883	1278.284584418993	-202.86342230683454	3016.9912355513193	1075.4628040718094	-302.79961565926163	3207.06595721082	991.9501219355792	-414.224169409019	3217.1991034035386	1009.4216650064404	-435.21299183671846	3217.223341458221	1011.5702945844259	-464.38452897004873	3218.895883305304	1009.5240458742873	-484.27840354511085	3221.706581032748	1004.7876043903982	-500.50274721462506	3225.880030467239	998.9430917495218	-435.0222046885358	3252.9082887181316	993.8158108965841	-467.87319964714584	3262.0162901354147	986.9489485071481	-493.9746149725376	3258.9078451041855	984.152708508451	-509.7744659148231	3250.4187587528877	982.8317647019172	-522.5637111739958	3228.9813104341283	989.3295644046894	-432.8872544087643	3257.024110583767	979.1295448790846	-463.773405596453	3267.272170860787	970.3804604981129	-491.8710286159737	3263.6704039995248	966.404199172874	-510.7485927222958	3254.4539677270964	964.6658503950457	-524.6527101541463	3230.5973489164207	982.6777620437695	-430.5114868709592	3257.467737207227	967.7895228613781	-456.0441116402258	3266.6707793318114	958.8960264871863	-480.0930476987545	3263.340375278612	954.3873538722223	-498.0677263411611	3254.742730218544	952.4338373321375	-511.0301049886286	3230.773279722985	975.0863396141763	-427.0509441655319	3255.9207237972955	956.780466976431	-448.24880603612905	3263.594619078878	947.7458898973455	-466.70707188283166	3261.3126795285198	943.5318660741418	-479.43126590018016	3253.7813154645833	941.2688005691311	-490.69132077703205	2766.316950847888	1192.0535153287399	-106.91294716090121	2699.1705951638796	1092.508617899233	-66.36968005034268	2913.1143288959274	1027.9201893662332	-192.11715730517656	3131.5507018686094	994.3462882821322	-308.6557851468568	3146.698438863372	1016.6033838242399	-320.8911520871955	3177.190676718881	1025.650851742928	-314.87788656199666	3200.507729538176	1028.4009390497783	-310.37724099917693	3221.7274585412474	1027.6561463261955	-306.35747924064486	3155.00423281993	1006.4030873118924	-322.87353388599297	3200.946590961857	1009.5572328510126	-334.85747146681587	3235.846812945836	1009.1589369445406	-332.6109476616048	3253.890775161949	1010.1353626302739	-324.7285720922903	3266.3613698035006	1011.7692157021461	-313.8295204684145	3159.2077852396023	996.5130616882864	-321.10192038534706	3206.2914446970626	994.2407419255493	-331.8354498428437	3244.783815930565	992.4876791025534	-329.09818338825016	3266.749585028042	993.0330310328311	-319.4512001563313	3280.490144008012	994.5131920436356	-307.4589630153237	3160.998232069883	989.4490179340468	-319.6522957667051	3204.7283926709674	981.2914339380048	-328.3287803054152	3238.622690982255	978.4194228541869	-325.6326917397553	3259.993204393348	978.2316972303639	-316.16261522066986	3272.999404740094	979.2851896389591	-304.8087959331325	3161.7858509106013	981.1864049741093	-316.78488947597856	3202.3718554830452	968.6240548413966	-323.34085813070976	3229.8595037153873	964.2629479805695	-320.6592196493828	3245.614786127116	963.1289004296334	-313.49885455686916	3257.232585465462	963.4882644171092	-303.2956971739568
99	0.817	3081.203	893.81699	129.612	3170.603053508576	901.6532988876935	93.72219800805041	3058.15906453614	501.9540875152429	37.11200080128422	3041.7228997805505	111.4665484905642	24.609490014337908	2927.156368197339	42.59435370754251	163.94904214029995	3004.1612368495107	860.0919491985204	179.51992982635267	2898.570210014616	471.99356239438606	295.91984092467237	2780.5821753624386	81.12838389242421	465.87487102947034	2634.6581836198293	36.33408613484585	351.4827403091798	3022.464289271725	1013.1923051509422	77.56585828058297	2965.449977297859	1074.1127361242643	28.167121976571064	2902.4085765985456	1131.4409644737182	-26.117782014991615	2837.664219726147	1176.5027644375634	-82.6901204958258	2766.720279405231	1225.9683075227017	-140.0098555892758	2692.4096447013553	1264.020775665059	-183.85553723768044	2553.3562767717467	1341.3376727139753	-195.9920446460165	2813.815335133715	1225.142388271113	-135.5438858708193	2901.1871874274934	1278.793614185152	-202.62034355976178	3017.756665838853	1076.495079718238	-302.68619989920273	3208.043547423297	993.8965048755755	-414.410548216849	3218.3035966632756	1011.5883314266046	-435.3353667669135	3218.4503909890072	1013.897238388895	-464.6033364252242	3220.1979986195465	1011.9500625554151	-484.5797240308542	3223.0624797907335	1007.2854810400175	-500.88599250180886	3226.958378914216	1001.0906674060765	-435.1816560046058	3254.1065113570935	996.1997805878623	-468.1008683749669	3263.3028969518373	989.467137670618	-494.31439239813676	3260.2511976259857	986.7295926059091	-510.2016156267448	3251.8102926963284	985.4405369670078	-523.0751018975467	3230.027756212121	991.4333522198444	-433.0891718484469	3258.17022128542	981.4402270725475	-464.0648117321619	3268.5101331086553	972.8310203703277	-492.29022863227374	3264.9746240465793	968.9224138150324	-511.27582684165935	3255.8098359794776	967.2174205224139	-525.2733938363479	3231.6181030910498	984.7448536865379	-430.7411226358526	3258.5552336017504	970.0109760420484	-456.37642213755106	3267.833484982523	961.232339803229	-480.5421931614152	3264.5644163659776	956.7851783567284	-498.62397235175615	3256.0141124501533	954.8612491709418	-511.67558810821237	3231.7616877112114	977.1021412640425	-427.3148230466676	3256.950131328478	958.9072186399346	-448.6261710700726	3264.676394710095	949.9529328272682	-467.1860501903312	3262.4353932917297	945.7781228015057	-479.99226128189787	3254.9437787347206	943.5380137382901	-491.33360807492204	2766.715709461332	1192.3628766286618	-107.04236665111829	2699.539649189671	1092.908772450002	-66.81869249458583	2913.343790419118	1028.5731290002102	-192.47110412794865	3131.769348496131	995.5586477630236	-308.805023597579	3146.9291864248626	1018.0087027724632	-320.86529678609696	3177.350750379296	1027.1543503762482	-314.6640089577706	3200.6184683063325	1029.9681674253293	-310.0451866022559	3221.7969679526213	1029.272530802057	-305.9378225706527	3155.244332976521	1007.8210366258307	-322.880068407831	3201.1815135617694	1011.2220311379302	-334.68150821080786	3236.031851952952	1010.9336969883905	-332.2935088073486	3254.0198952254796	1011.9291800517635	-324.3189988867132	3266.427405735521	1013.5455491898016	-313.34086955863347	3159.4455465618335	997.9068501533008	-321.1488275961584	3206.522903417333	995.862248622503	-331.72619597277907	3244.9604915909877	994.2251098658618	-328.840452668857	3266.858628542695	994.7915031405018	-319.08514467239917	3280.53008088247	996.2515848332054	-307.0077581279498	3161.234940378758	990.82008475045	-319.732577629199	3204.959908168958	982.8487486920583	-328.2986492312953	3238.8061045354684	980.0732554087073	-325.47942364747854	3260.1111945500215	979.9034246140423	-315.9081917993043	3273.052328643572	980.9368996313822	-304.4758902385519	3162.0178070554975	982.5190383129434	-316.90739575378774	3202.597690064738	970.1060699275642	-323.3887178038657	3230.0462892836817	965.8143790905094	-320.61874527084177	3245.7535941163214	964.6895767111948	-313.3895651816434	3257.31360789211	965.0290174171672	-303.11974409944105
100	0.825	3081.203	893.81699	129.612	3170.4467558003853	901.5452680197369	93.76497448402053	3057.909298247553	501.82080925716457	37.533887700701214	3042.059757226243	111.51981119043377	24.77100963469568	2927.6449765824564	42.55457993840513	164.13168976046944	3004.2895866164	860.1882278293175	179.48270021316011	2898.676407677498	472.11685937953087	295.94769019419283	2780.572559555507	81.33695767354283	465.9988014563153	2634.7260629010943	36.554971676031634	351.49343478744765	3022.603040498865	1013.2400822345905	77.524577178764	2965.649596483239	1074.216265277886	28.120788251302375	2902.6674822222926	1131.6116550561583	-26.166831446724263	2837.9757673757754	1176.756595973663	-82.74120570688098	2767.084256058263	1226.30293988129	-140.06256328182772	2692.7914093666914	1264.4062073616385	-183.87659474345384	2553.731456486387	1341.7077992245283	-196.02265730028213	2814.122109912206	1225.458608038114	-135.53787448978358	2901.4494128925508	1279.2766015778802	-202.32486155239582	3018.4797660580816	1077.5062022613613	-302.4866187806777	3208.938638043193	995.8213580663868	-414.46934273792857	3219.317760295743	1013.7365249176905	-435.32564212902133	3219.586227134902	1016.2076232856512	-464.68450239528784	3221.409079632894	1014.3612792939273	-484.7392706429144	3224.3281727129843	1009.7703902919135	-501.1237860162423	3227.9479581970536	1003.2219082423131	-435.2075414023954	3255.2117983186868	998.5755241785865	-468.18514401307453	3264.4967107998546	991.9809997340903	-494.5043388328607	3261.503192857383	989.3026393110748	-510.47613725130776	3253.112565644971	988.0445725131286	-523.4323616369159	3230.987883785145	993.521600937141	-433.1571429040979	3259.2272743813664	983.7437107336217	-464.2124808770271	3269.6595346418185	975.2787127570095	-492.55864906752316	3266.19217884815	971.4383884538005	-511.64889777368387	3257.0814119479683	969.7657847839102	-525.738265908253	3232.5543504056486	986.7967840391585	-430.8367867092701	3259.5572628828513	972.2251352108368	-456.5659412144948	3268.911509301576	963.5651991292904	-480.84240613266405	3265.705792164646	959.1801887022385	-499.02802087045484	3257.205149435586	957.2849543722833	-512.1673230698317	3232.6680063689046	979.10280773366	-427.4450469626903	3257.8979684073815	961.0261434957	-448.861957401383	3265.6777843459618	952.1552908979698	-467.51856672287306	3263.4794596166703	948.0201937479319	-480.40442977825137	3256.029804585015	945.8022691519582	-491.8257048796807	2767.1031577323224	1192.6654207895947	-107.15367054890415	2699.907543854421	1093.316644394657	-67.26140704937272	2913.559492424681	1029.2778425256176	-192.77193437463376	3131.9364889126373	996.8205498725996	-308.8920529567056	3147.097058691506	1019.4646665873687	-320.76416817351947	3177.438563364794	1028.704087812183	-314.37076555899216	3200.6509981638046	1031.579265347922	-309.63203984147975	3221.783812577221	1030.9314080774298	-305.43659534322086	3155.422421263019	1009.2930755005027	-322.81340456104795	3201.341414540629	1012.9468420130133	-334.4229886174361	3236.1338839485525	1012.768124360396	-331.89103234526493	3254.0621614113097	1013.778969867062	-323.82486957219226	3266.404157147305	1015.3724482420071	-312.7694264074779	3159.623397899314	999.3562122828125	-321.1261098741754	3206.682899540665	997.5459099067104	-331.54012067715837	3245.0573121471944	996.0244900651845	-328.5037008017273	3266.8833297231668	996.6075484203487	-318.64089199223025	3280.483090539812	998.0416749033957	-306.4804041013993	3161.4135461083165	992.2476736123376	-319.74596233662186	3205.1245085659066	984.4694562451065	-328.197436563417	3238.9156345439847	981.7904656240433	-325.2536857721754	3260.151156804598	981.6343955108105	-315.58237492750555	3273.0248813556723	982.6423696028417	-304.07364981090564	3162.1941966239788	983.9087131137782	-316.9666991812878	3202.7614017646533	971.6519209424779	-323.3716921540434	3230.1659507953436	967.42985954779	-320.5131196090892	3245.822534887612	966.3113958645587	-313.21631829568395	3257.3228487472056	966.6261185801127	-302.8818925755127
101	0.833	3081.203	893.81699	129.612	3170.280352591509	901.426521217424	93.80482767775423	3057.6613347336656	501.67543366024364	37.944435981087125	3042.3889783520926	111.56916987252887	24.926972619199475	2928.1328897301055	42.50759167896962	164.30971306109953	3004.426667140112	860.294843655615	179.44884478853865	2898.783541459572	472.24781029659624	295.96203215127423	2780.6057082894777	81.52461659093015	466.0726889929976	2634.8384338015835	36.749546412704255	351.4558928206173	3022.7493165641185	1013.2899882489645	77.48036900851653	2965.8570334914953	1074.3218861330174	28.07111055054769	2902.9337316788246	1131.7836724938752	-26.21949410466469	2838.292519286035	1177.0091596715404	-82.79551498330969	2767.451555640074	1226.6338237784407	-140.11836909941655	2693.1788978665186	1264.7883700550274	-183.90450846158657	2554.1127548443505	1342.0756962425805	-196.05664954156416	2814.4296539573647	1225.765098374911	-135.5395817779377	2901.716790050994	1279.7366996895319	-201.99154201723175	3019.162851806441	1078.4743784099887	-302.215797596959	3209.7488087270326	997.6891435828504	-414.41623865568744	3220.23817090866	1015.830462820002	-435.19811814191115	3220.6265614397616	1018.4669390390119	-464.64119871986264	3222.5242543851355	1016.7241693788587	-484.7695812130075	3225.4983175664033	1012.2097088843933	-501.2282669987628	3228.845295062502	1005.3012340702107	-435.1145817911742	3256.2192488582164	1000.9082997216875	-468.1398238696803	3265.5919744422768	994.4570435247414	-494.557592780941	3262.657711796676	991.8393569391468	-510.61069921395006	3254.319274062426	990.6123564806816	-523.6477287820965	3231.8583276926047	995.5589981923164	-433.1063329747741	3260.1905701331134	986.0056460571911	-464.2309179168623	3270.714760320538	977.6905861144156	-492.69013809944033	3267.317025958404	973.9203934594641	-511.88111586732924	3258.2624557135573	972.2802902607747	-526.0601803742854	3233.4028363283624	988.7984026371244	-430.8139832515679	3260.4694667362846	974.3978354861596	-456.6278781024579	3269.899717487897	965.8616913554108	-481.0083871374179	3266.7589671729456	961.5406676259756	-499.2940878030804	3258.3101255715874	959.6742561295023	-512.5191129050976	3233.4891628355226	981.0533979156235	-427.45752968601977	3258.7602557762016	963.103313836002	-448.9720635463102	3266.594225437493	954.3200854538413	-467.7202139045412	3264.440042255479	950.2260953116107	-480.6830592047409	3257.0344079119873	948.0305002428328	-492.1825614971656	2767.497536395366	1192.9718661191594	-107.26312309386287	2700.2928964799853	1093.744312866592	-67.70838162496847	2913.7962704050046	1030.0755738661119	-192.99533899049064	3132.0871091676554	998.1644723766071	-308.89597001625634	3147.255668412423	1020.991729459537	-320.5864794239491	3177.523007420136	1030.311321500593	-314.0126601036205	3200.682597269519	1033.237838271198	-309.16233612039844	3221.770333701831	1032.6289375752356	-304.8858707388821	3155.585613401814	1010.833127105993	-322.6710013473514	3201.4841334502917	1014.7167528045081	-334.10210559119736	3236.2188846024483	1014.6323533606263	-331.4373735359319	3254.089981301755	1015.6516305911537	-323.2863701854891	3266.3702819839377	1017.2182210948637	-312.1591576429368	3159.7819829813657	1000.872926107156	-321.02770845191253	3206.8190358456623	999.274216367728	-331.2914369787484	3245.1298708325508	997.8518104229834	-328.11650837142736	3266.8866157047833	998.4431657945252	-318.1544009779415	3280.4187318288564	999.8469609876112	-305.9168706663685	3161.5698277815227	993.7427167850244	-319.68334564633864	3205.2599288055167	986.1373149274847	-328.0316212044906	3238.9950621960415	983.5402903841895	-324.97389493404427	3260.163458602044	983.3899218292195	-315.21038790388405	3272.9734347466315	984.368286294074	-303.6309218926868	3162.34503334105	985.3667411182071	-316.94936832484217	3202.8911824303564	973.2479993134058	-323.28804961372475	3230.250080674885	969.0840527763048	-320.3491904422481	3245.857308052893	967.9661099994833	-312.99045209422115	3257.300925238981	968.2525099690187	-302.59641822668294
